<?xml version="1.0" encoding="UTF-8"?>
<!DOCTYPE svg PUBLIC "-//W3C//DTD SVG 1.1//EN" "http://www.w3.org/Graphics/SVG/1.1/DTD/svg11.dtd">
<svg version="1.1" xmlns="http://www.w3.org/2000/svg" xmlns:xlink="http://www.w3.org/1999/xlink" width="1024" height="1024"  xml:space="preserve" id="canvas1">
    <!-- Generated by PaintCode - http://www.paintcodeapp.com -->
    <defs>
        <radialGradient id="canvas1-gradient2-rectangle2" cx="512" cy="512"  r="512" fx="512" fy="512" gradientUnits="userSpaceOnUse" >
            <stop offset="0" stop-color="rgb(255, 255, 255)" stop-opacity="1" />
            <stop offset="0.485" stop-color="rgb(255, 255, 255)" stop-opacity="1" />
            <stop offset="0.653" stop-color="rgb(255, 255, 255)" stop-opacity="1" />
            <stop offset="1" stop-color="rgb(255, 255, 255)" stop-opacity="1" />
        </radialGradient>
    </defs>
    <g id="canvas1-webGroup">
        <circle id="canvas1-oval" stroke="none" fill="rgb(57, 181, 74)" cx="174" cy="70" r="18" />
        <circle id="canvas1-oval2" stroke="none" fill="rgb(57, 181, 74)" cx="70" cy="174" r="18" />
        <circle id="canvas1-oval3" stroke="none" fill="rgb(41, 171, 226)" cx="122" cy="174" r="18" />
        <circle id="canvas1-oval4" stroke="none" fill="rgb(241, 90, 36)" cx="122" cy="122" r="18" />
        <circle id="canvas1-oval5" stroke="none" fill="rgb(241, 90, 36)" cx="174" cy="122" r="18" />
        <circle id="canvas1-oval6" stroke="none" fill="rgb(41, 171, 226)" cx="174" cy="174" r="18" />
        <circle id="canvas1-oval7" stroke="none" fill="rgb(241, 90, 36)" cx="226" cy="70" r="18" />
        <circle id="canvas1-oval8" stroke="none" fill="rgb(241, 90, 36)" cx="278" cy="70" r="18" />
        <circle id="canvas1-oval9" stroke="none" fill="rgb(41, 171, 226)" cx="330" cy="70" r="18" />
        <circle id="canvas1-oval10" stroke="none" fill="rgb(41, 171, 226)" cx="382" cy="70" r="18" />
        <circle id="canvas1-oval11" stroke="none" fill="rgb(57, 181, 74)" cx="226" cy="174" r="18" />
        <circle id="canvas1-oval12" stroke="none" fill="rgb(241, 90, 36)" cx="226" cy="122" r="18" />
        <circle id="canvas1-oval13" stroke="none" fill="rgb(241, 90, 36)" cx="278" cy="122" r="18" />
        <circle id="canvas1-oval14" stroke="none" fill="rgb(241, 90, 36)" cx="330" cy="122" r="18" />
        <circle id="canvas1-oval15" stroke="none" fill="rgb(57, 181, 74)" cx="434" cy="70" r="18" />
        <circle id="canvas1-oval16" stroke="none" fill="rgb(57, 181, 74)" cx="486" cy="70" r="18" />
        <circle id="canvas1-oval17" stroke="none" fill="rgb(57, 181, 74)" cx="538" cy="70" r="18" />
        <circle id="canvas1-oval18" stroke="none" fill="rgb(57, 181, 74)" cx="590" cy="70" r="18" />
        <circle id="canvas1-oval19" stroke="none" fill="rgb(241, 90, 36)" cx="486" cy="174" r="18" />
        <circle id="canvas1-oval20" stroke="none" fill="rgb(241, 90, 36)" cx="538" cy="174" r="18" />
        <circle id="canvas1-oval21" stroke="none" fill="rgb(41, 171, 226)" cx="70" cy="226" r="18" />
        <circle id="canvas1-oval22" stroke="none" fill="rgb(57, 181, 74)" cx="70" cy="278" r="18" />
        <circle id="canvas1-oval23" stroke="none" fill="rgb(57, 181, 74)" cx="122" cy="278" r="18" />
        <circle id="canvas1-oval24" stroke="none" fill="rgb(41, 171, 226)" cx="122" cy="226" r="18" />
        <circle id="canvas1-oval25" stroke="none" fill="rgb(57, 181, 74)" cx="174" cy="226" r="18" />
        <circle id="canvas1-oval26" stroke="none" fill="rgb(57, 181, 74)" cx="70" cy="330" r="18" />
        <circle id="canvas1-oval27" stroke="none" fill="rgb(241, 90, 36)" cx="70" cy="382" r="18" />
        <circle id="canvas1-oval28" stroke="none" fill="rgb(57, 181, 74)" cx="122" cy="330" r="18" />
        <circle id="canvas1-oval29" stroke="none" fill="rgb(41, 171, 226)" cx="278" cy="278" r="18" />
        <circle id="canvas1-oval30" stroke="none" fill="rgb(41, 171, 226)" cx="330" cy="278" r="18" />
        <circle id="canvas1-oval31" stroke="none" fill="rgb(41, 171, 226)" cx="330" cy="226" r="18" />
        <circle id="canvas1-oval32" stroke="none" fill="rgb(41, 171, 226)" cx="382" cy="226" r="18" />
        <circle id="canvas1-oval33" stroke="none" fill="rgb(41, 171, 226)" cx="382" cy="278" r="18" />
        <circle id="canvas1-oval34" stroke="none" fill="rgb(204, 204, 204)" cx="226" cy="382" r="18" />
        <circle id="canvas1-oval35" stroke="none" fill="rgb(204, 204, 204)" cx="226" cy="330" r="18" />
        <circle id="canvas1-oval36" stroke="none" fill="rgb(204, 204, 204)" cx="278" cy="330" r="18" />
        <circle id="canvas1-oval37" stroke="none" fill="rgb(204, 204, 204)" cx="278" cy="382" r="18" />
        <circle id="canvas1-oval38" stroke="none" fill="rgb(204, 204, 204)" cx="330" cy="382" r="18" />
        <circle id="canvas1-oval39" stroke="none" fill="rgb(204, 204, 204)" cx="330" cy="330" r="18" />
        <circle id="canvas1-oval40" stroke="none" fill="rgb(204, 204, 204)" cx="382" cy="330" r="18" />
        <circle id="canvas1-oval41" stroke="none" fill="rgb(204, 204, 204)" cx="382" cy="382" r="18" />
        <circle id="canvas1-oval42" stroke="none" fill="rgb(241, 90, 36)" cx="434" cy="278" r="18" />
        <circle id="canvas1-oval43" stroke="none" fill="rgb(241, 90, 36)" cx="434" cy="226" r="18" />
        <circle id="canvas1-oval44" stroke="none" fill="rgb(241, 90, 36)" cx="486" cy="226" r="18" />
        <circle id="canvas1-oval45" stroke="none" fill="rgb(241, 90, 36)" cx="486" cy="278" r="18" />
        <circle id="canvas1-oval46" stroke="none" fill="rgb(204, 204, 204)" cx="538" cy="278" r="18" />
        <circle id="canvas1-oval47" stroke="none" fill="rgb(204, 204, 204)" cx="538" cy="226" r="18" />
        <circle id="canvas1-oval48" stroke="none" fill="rgb(204, 204, 204)" cx="590" cy="226" r="18" />
        <circle id="canvas1-oval49" stroke="none" fill="rgb(41, 171, 226)" cx="590" cy="278" r="18" />
        <circle id="canvas1-oval50" stroke="none" fill="rgb(41, 171, 226)" cx="434" cy="382" r="18" />
        <circle id="canvas1-oval51" stroke="none" fill="rgb(41, 171, 226)" cx="434" cy="330" r="18" />
        <circle id="canvas1-oval52" stroke="none" fill="rgb(41, 171, 226)" cx="486" cy="330" r="18" />
        <circle id="canvas1-oval53" stroke="none" fill="rgb(41, 171, 226)" cx="486" cy="382" r="18" />
        <circle id="canvas1-oval54" stroke="none" fill="rgb(41, 171, 226)" cx="538" cy="382" r="18" />
        <circle id="canvas1-oval55" stroke="none" fill="rgb(41, 171, 226)" cx="538" cy="330" r="18" />
        <circle id="canvas1-oval56" stroke="none" fill="rgb(41, 171, 226)" cx="590" cy="330" r="18" />
        <circle id="canvas1-oval57" stroke="none" fill="rgb(41, 171, 226)" cx="590" cy="382" r="18" />
        <circle id="canvas1-oval58" stroke="none" fill="rgb(241, 90, 36)" cx="70" cy="434" r="18" />
        <circle id="canvas1-oval59" stroke="none" fill="rgb(241, 90, 36)" cx="70" cy="486" r="18" />
        <circle id="canvas1-oval60" stroke="none" fill="rgb(204, 204, 204)" cx="174" cy="486" r="18" />
        <circle id="canvas1-oval61" stroke="none" fill="rgb(57, 181, 74)" cx="70" cy="538" r="18" />
        <circle id="canvas1-oval62" stroke="none" fill="rgb(57, 181, 74)" cx="70" cy="590" r="18" />
        <circle id="canvas1-oval63" stroke="none" fill="rgb(204, 204, 204)" cx="174" cy="538" r="18" />
        <circle id="canvas1-oval64" stroke="none" fill="rgb(204, 204, 204)" cx="226" cy="486" r="18" />
        <circle id="canvas1-oval65" stroke="none" fill="rgb(204, 204, 204)" cx="226" cy="434" r="18" />
        <circle id="canvas1-oval66" stroke="none" fill="rgb(41, 171, 226)" cx="278" cy="434" r="18" />
        <circle id="canvas1-oval67" stroke="none" fill="rgb(41, 171, 226)" cx="278" cy="486" r="18" />
        <circle id="canvas1-oval68" stroke="none" fill="rgb(41, 171, 226)" cx="330" cy="486" r="18" />
        <circle id="canvas1-oval69" stroke="none" fill="rgb(41, 171, 226)" cx="330" cy="434" r="18" />
        <circle id="canvas1-oval70" stroke="none" fill="rgb(204, 204, 204)" cx="382" cy="434" r="18" />
        <circle id="canvas1-oval71" stroke="none" fill="rgb(204, 204, 204)" cx="382" cy="486" r="18" />
        <circle id="canvas1-oval72" stroke="none" fill="rgb(241, 90, 36)" cx="226" cy="590" r="18" />
        <circle id="canvas1-oval73" stroke="none" fill="rgb(204, 204, 204)" cx="226" cy="538" r="18" />
        <circle id="canvas1-oval74" stroke="none" fill="rgb(57, 181, 74)" cx="382" cy="538" r="18" />
        <circle id="canvas1-oval75" stroke="none" fill="rgb(204, 204, 204)" cx="434" cy="486" r="18" />
        <circle id="canvas1-oval76" stroke="none" fill="rgb(204, 204, 204)" cx="434" cy="434" r="18" />
        <circle id="canvas1-oval77" stroke="none" fill="rgb(204, 204, 204)" cx="486" cy="434" r="18" />
        <circle id="canvas1-oval78" stroke="none" fill="rgb(204, 204, 204)" cx="486" cy="486" r="18" />
        <circle id="canvas1-oval79" stroke="none" fill="rgb(57, 181, 74)" cx="538" cy="486" r="18" />
        <circle id="canvas1-oval80" stroke="none" fill="rgb(57, 181, 74)" cx="538" cy="434" r="18" />
        <circle id="canvas1-oval81" stroke="none" fill="rgb(57, 181, 74)" cx="590" cy="434" r="18" />
        <circle id="canvas1-oval82" stroke="none" fill="rgb(57, 181, 74)" cx="434" cy="538" r="18" />
        <circle id="canvas1-oval83" stroke="none" fill="rgb(57, 181, 74)" cx="486" cy="538" r="18" />
        <circle id="canvas1-oval84" stroke="none" fill="rgb(204, 204, 204)" cx="590" cy="590" r="18" />
        <circle id="canvas1-oval85" stroke="none" fill="rgb(41, 171, 226)" cx="70" cy="642" r="18" />
        <circle id="canvas1-oval86" stroke="none" fill="rgb(41, 171, 226)" cx="70" cy="694" r="18" />
        <circle id="canvas1-oval87" stroke="none" fill="rgb(41, 171, 226)" cx="122" cy="694" r="18" />
        <circle id="canvas1-oval88" stroke="none" fill="rgb(41, 171, 226)" cx="70" cy="746" r="18" />
        <circle id="canvas1-oval89" stroke="none" fill="rgb(41, 171, 226)" cx="70" cy="798" r="18" />
        <circle id="canvas1-oval90" stroke="none" fill="rgb(41, 171, 226)" cx="122" cy="798" r="18" />
        <circle id="canvas1-oval91" stroke="none" fill="rgb(41, 171, 226)" cx="122" cy="746" r="18" />
        <circle id="canvas1-oval92" stroke="none" fill="rgb(204, 204, 204)" cx="174" cy="798" r="18" />
        <circle id="canvas1-oval93" stroke="none" fill="rgb(241, 90, 36)" cx="226" cy="694" r="18" />
        <circle id="canvas1-oval94" stroke="none" fill="rgb(241, 90, 36)" cx="226" cy="642" r="18" />
        <circle id="canvas1-oval95" stroke="none" fill="rgb(241, 90, 36)" cx="278" cy="642" r="18" />
        <circle id="canvas1-oval96" stroke="none" fill="rgb(241, 90, 36)" cx="278" cy="694" r="18" />
        <circle id="canvas1-oval97" stroke="none" fill="rgb(57, 181, 74)" cx="330" cy="694" r="18" />
        <circle id="canvas1-oval98" stroke="none" fill="rgb(241, 90, 36)" cx="278" cy="746" r="18" />
        <circle id="canvas1-oval99" stroke="none" fill="rgb(41, 171, 226)" cx="330" cy="798" r="18" />
        <circle id="canvas1-oval100" stroke="none" fill="rgb(41, 171, 226)" cx="330" cy="746" r="18" />
        <circle id="canvas1-oval101" stroke="none" fill="rgb(41, 171, 226)" cx="382" cy="746" r="18" />
        <circle id="canvas1-oval102" stroke="none" fill="rgb(41, 171, 226)" cx="382" cy="798" r="18" />
        <circle id="canvas1-oval103" stroke="none" fill="rgb(204, 204, 204)" cx="486" cy="694" r="18" />
        <circle id="canvas1-oval104" stroke="none" fill="rgb(204, 204, 204)" cx="538" cy="694" r="18" />
        <circle id="canvas1-oval105" stroke="none" fill="rgb(204, 204, 204)" cx="538" cy="642" r="18" />
        <circle id="canvas1-oval106" stroke="none" fill="rgb(204, 204, 204)" cx="590" cy="642" r="18" />
        <circle id="canvas1-oval107" stroke="none" fill="rgb(204, 204, 204)" cx="590" cy="694" r="18" />
        <circle id="canvas1-oval108" stroke="none" fill="rgb(204, 204, 204)" cx="434" cy="798" r="18" />
        <circle id="canvas1-oval109" stroke="none" fill="rgb(204, 204, 204)" cx="434" cy="746" r="18" />
        <circle id="canvas1-oval110" stroke="none" fill="rgb(204, 204, 204)" cx="486" cy="746" r="18" />
        <circle id="canvas1-oval111" stroke="none" fill="rgb(204, 204, 204)" cx="486" cy="798" r="18" />
        <circle id="canvas1-oval112" stroke="none" fill="rgb(204, 204, 204)" cx="538" cy="798" r="18" />
        <circle id="canvas1-oval113" stroke="none" fill="rgb(204, 204, 204)" cx="538" cy="746" r="18" />
        <circle id="canvas1-oval114" stroke="none" fill="rgb(204, 204, 204)" cx="590" cy="746" r="18" />
        <circle id="canvas1-oval115" stroke="none" fill="rgb(204, 204, 204)" cx="590" cy="798" r="18" />
        <circle id="canvas1-oval116" stroke="none" fill="rgb(41, 171, 226)" cx="642" cy="70" r="18" />
        <circle id="canvas1-oval117" stroke="none" fill="rgb(204, 204, 204)" cx="694" cy="70" r="18" />
        <circle id="canvas1-oval118" stroke="none" fill="rgb(204, 204, 204)" cx="746" cy="70" r="18" />
        <circle id="canvas1-oval119" stroke="none" fill="rgb(204, 204, 204)" cx="798" cy="70" r="18" />
        <circle id="canvas1-oval120" stroke="none" fill="rgb(41, 171, 226)" cx="694" cy="122" r="18" />
        <circle id="canvas1-oval121" stroke="none" fill="rgb(204, 204, 204)" cx="746" cy="122" r="18" />
        <circle id="canvas1-oval122" stroke="none" fill="rgb(204, 204, 204)" cx="798" cy="122" r="18" />
        <circle id="canvas1-oval123" stroke="none" fill="rgb(41, 171, 226)" cx="798" cy="174" r="18" />
        <circle id="canvas1-oval124" stroke="none" fill="rgb(204, 204, 204)" cx="850" cy="70" r="18" />
        <circle id="canvas1-oval125" stroke="none" fill="rgb(41, 171, 226)" cx="850" cy="174" r="18" />
        <circle id="canvas1-oval126" stroke="none" fill="rgb(41, 171, 226)" cx="850" cy="122" r="18" />
        <circle id="canvas1-oval127" stroke="none" fill="rgb(41, 171, 226)" cx="902" cy="122" r="18" />
        <circle id="canvas1-oval128" stroke="none" fill="rgb(57, 181, 74)" cx="902" cy="174" r="18" />
        <circle id="canvas1-oval129" stroke="none" fill="rgb(41, 171, 226)" cx="954" cy="174" r="18" />
        <circle id="canvas1-oval130" stroke="none" fill="rgb(204, 204, 204)" cx="642" cy="278" r="18" />
        <circle id="canvas1-oval131" stroke="none" fill="rgb(204, 204, 204)" cx="642" cy="226" r="18" />
        <circle id="canvas1-oval132" stroke="none" fill="rgb(241, 90, 36)" cx="694" cy="226" r="18" />
        <circle id="canvas1-oval133" stroke="none" fill="rgb(241, 90, 36)" cx="694" cy="278" r="18" />
        <circle id="canvas1-oval134" stroke="none" fill="rgb(241, 90, 36)" cx="746" cy="278" r="18" />
        <circle id="canvas1-oval135" stroke="none" fill="rgb(57, 181, 74)" cx="642" cy="330" r="18" />
        <circle id="canvas1-oval136" stroke="none" fill="rgb(241, 90, 36)" cx="798" cy="330" r="18" />
        <circle id="canvas1-oval137" stroke="none" fill="rgb(241, 90, 36)" cx="798" cy="382" r="18" />
        <circle id="canvas1-oval138" stroke="none" fill="rgb(41, 171, 226)" cx="850" cy="226" r="18" />
        <circle id="canvas1-oval139" stroke="none" fill="rgb(57, 181, 74)" cx="902" cy="226" r="18" />
        <circle id="canvas1-oval140" stroke="none" fill="rgb(57, 181, 74)" cx="902" cy="278" r="18" />
        <circle id="canvas1-oval141" stroke="none" fill="rgb(57, 181, 74)" cx="954" cy="278" r="18" />
        <circle id="canvas1-oval142" stroke="none" fill="rgb(57, 181, 74)" cx="954" cy="226" r="18" />
        <circle id="canvas1-oval143" stroke="none" fill="rgb(57, 181, 74)" cx="902" cy="330" r="18" />
        <circle id="canvas1-oval144" stroke="none" fill="rgb(204, 204, 204)" cx="954" cy="382" r="18" />
        <circle id="canvas1-oval145" stroke="none" fill="rgb(57, 181, 74)" cx="954" cy="330" r="18" />
        <circle id="canvas1-oval146" stroke="none" fill="rgb(204, 204, 204)" cx="694" cy="486" r="18" />
        <circle id="canvas1-oval147" stroke="none" fill="rgb(204, 204, 204)" cx="746" cy="486" r="18" />
        <circle id="canvas1-oval148" stroke="none" fill="rgb(241, 90, 36)" cx="746" cy="434" r="18" />
        <circle id="canvas1-oval149" stroke="none" fill="rgb(241, 90, 36)" cx="798" cy="434" r="18" />
        <circle id="canvas1-oval150" stroke="none" fill="rgb(204, 204, 204)" cx="798" cy="486" r="18" />
        <circle id="canvas1-oval151" stroke="none" fill="rgb(57, 181, 74)" cx="642" cy="590" r="18" />
        <circle id="canvas1-oval152" stroke="none" fill="rgb(57, 181, 74)" cx="642" cy="538" r="18" />
        <circle id="canvas1-oval153" stroke="none" fill="rgb(57, 181, 74)" cx="694" cy="538" r="18" />
        <circle id="canvas1-oval154" stroke="none" fill="rgb(57, 181, 74)" cx="694" cy="590" r="18" />
        <circle id="canvas1-oval155" stroke="none" fill="rgb(57, 181, 74)" cx="746" cy="590" r="18" />
        <circle id="canvas1-oval156" stroke="none" fill="rgb(57, 181, 74)" cx="746" cy="538" r="18" />
        <circle id="canvas1-oval157" stroke="none" fill="rgb(57, 181, 74)" cx="798" cy="538" r="18" />
        <circle id="canvas1-oval158" stroke="none" fill="rgb(57, 181, 74)" cx="798" cy="590" r="18" />
        <circle id="canvas1-oval159" stroke="none" fill="rgb(204, 204, 204)" cx="850" cy="486" r="18" />
        <circle id="canvas1-oval160" stroke="none" fill="rgb(204, 204, 204)" cx="954" cy="486" r="18" />
        <circle id="canvas1-oval161" stroke="none" fill="rgb(204, 204, 204)" cx="954" cy="434" r="18" />
        <circle id="canvas1-oval162" stroke="none" fill="rgb(204, 204, 204)" cx="850" cy="538" r="18" />
        <circle id="canvas1-oval163" stroke="none" fill="rgb(204, 204, 204)" cx="954" cy="590" r="18" />
        <circle id="canvas1-oval164" stroke="none" fill="rgb(204, 204, 204)" cx="954" cy="538" r="18" />
        <circle id="canvas1-oval165" stroke="none" fill="rgb(241, 90, 36)" cx="642" cy="694" r="18" />
        <circle id="canvas1-oval166" stroke="none" fill="rgb(57, 181, 74)" cx="642" cy="642" r="18" />
        <circle id="canvas1-oval167" stroke="none" fill="rgb(204, 204, 204)" cx="694" cy="642" r="18" />
        <circle id="canvas1-oval168" stroke="none" fill="rgb(204, 204, 204)" cx="694" cy="694" r="18" />
        <circle id="canvas1-oval169" stroke="none" fill="rgb(204, 204, 204)" cx="746" cy="694" r="18" />
        <circle id="canvas1-oval170" stroke="none" fill="rgb(204, 204, 204)" cx="746" cy="642" r="18" />
        <circle id="canvas1-oval171" stroke="none" fill="rgb(204, 204, 204)" cx="798" cy="642" r="18" />
        <circle id="canvas1-oval172" stroke="none" fill="rgb(204, 204, 204)" cx="798" cy="694" r="18" />
        <circle id="canvas1-oval173" stroke="none" fill="rgb(204, 204, 204)" cx="642" cy="798" r="18" />
        <circle id="canvas1-oval174" stroke="none" fill="rgb(241, 90, 36)" cx="642" cy="746" r="18" />
        <circle id="canvas1-oval175" stroke="none" fill="rgb(241, 90, 36)" cx="694" cy="746" r="18" />
        <circle id="canvas1-oval176" stroke="none" fill="rgb(241, 90, 36)" cx="694" cy="798" r="18" />
        <circle id="canvas1-oval177" stroke="none" fill="rgb(204, 204, 204)" cx="746" cy="746" r="18" />
        <circle id="canvas1-oval178" stroke="none" fill="rgb(204, 204, 204)" cx="902" cy="694" r="18" />
        <circle id="canvas1-oval179" stroke="none" fill="rgb(41, 171, 226)" cx="954" cy="694" r="18" />
        <circle id="canvas1-oval180" stroke="none" fill="rgb(204, 204, 204)" cx="954" cy="642" r="18" />
        <circle id="canvas1-oval181" stroke="none" fill="rgb(241, 90, 36)" cx="850" cy="798" r="18" />
        <circle id="canvas1-oval182" stroke="none" fill="rgb(41, 171, 226)" cx="902" cy="746" r="18" />
        <circle id="canvas1-oval183" stroke="none" fill="rgb(41, 171, 226)" cx="902" cy="798" r="18" />
        <circle id="canvas1-oval184" stroke="none" fill="rgb(41, 171, 226)" cx="954" cy="798" r="18" />
        <circle id="canvas1-oval185" stroke="none" fill="rgb(41, 171, 226)" cx="954" cy="746" r="18" />
        <circle id="canvas1-oval186" stroke="none" fill="rgb(241, 90, 36)" cx="70" cy="850" r="18" />
        <circle id="canvas1-oval187" stroke="none" fill="rgb(241, 90, 36)" cx="122" cy="902" r="18" />
        <circle id="canvas1-oval188" stroke="none" fill="rgb(241, 90, 36)" cx="122" cy="850" r="18" />
        <circle id="canvas1-oval189" stroke="none" fill="rgb(241, 90, 36)" cx="174" cy="850" r="18" />
        <circle id="canvas1-oval190" stroke="none" fill="rgb(241, 90, 36)" cx="174" cy="902" r="18" />
        <circle id="canvas1-oval191" stroke="none" fill="rgb(241, 90, 36)" cx="174" cy="954" r="18" />
        <circle id="canvas1-oval192" stroke="none" fill="rgb(241, 90, 36)" cx="226" cy="902" r="18" />
        <circle id="canvas1-oval193" stroke="none" fill="rgb(241, 90, 36)" cx="226" cy="850" r="18" />
        <circle id="canvas1-oval194" stroke="none" fill="rgb(57, 181, 74)" cx="278" cy="902" r="18" />
        <circle id="canvas1-oval195" stroke="none" fill="rgb(57, 181, 74)" cx="330" cy="902" r="18" />
        <circle id="canvas1-oval196" stroke="none" fill="rgb(241, 90, 36)" cx="226" cy="954" r="18" />
        <circle id="canvas1-oval197" stroke="none" fill="rgb(57, 181, 74)" cx="278" cy="954" r="18" />
        <circle id="canvas1-oval198" stroke="none" fill="rgb(57, 181, 74)" cx="330" cy="954" r="18" />
        <circle id="canvas1-oval199" stroke="none" fill="rgb(57, 181, 74)" cx="382" cy="954" r="18" />
        <circle id="canvas1-oval200" stroke="none" fill="rgb(41, 171, 226)" cx="486" cy="850" r="18" />
        <circle id="canvas1-oval201" stroke="none" fill="rgb(41, 171, 226)" cx="538" cy="850" r="18" />
        <circle id="canvas1-oval202" stroke="none" fill="rgb(57, 181, 74)" cx="434" cy="954" r="18" />
        <circle id="canvas1-oval203" stroke="none" fill="rgb(241, 90, 36)" cx="486" cy="954" r="18" />
        <circle id="canvas1-oval204" stroke="none" fill="rgb(241, 90, 36)" cx="538" cy="954" r="18" />
        <circle id="canvas1-oval205" stroke="none" fill="rgb(241, 90, 36)" cx="590" cy="954" r="18" />
        <circle id="canvas1-oval206" stroke="none" fill="rgb(41, 171, 226)" cx="694" cy="902" r="18" />
        <circle id="canvas1-oval207" stroke="none" fill="rgb(41, 171, 226)" cx="746" cy="902" r="18" />
        <circle id="canvas1-oval208" stroke="none" fill="rgb(41, 171, 226)" cx="798" cy="850" r="18" />
        <circle id="canvas1-oval209" stroke="none" fill="rgb(41, 171, 226)" cx="798" cy="902" r="18" />
        <circle id="canvas1-oval210" stroke="none" fill="rgb(241, 90, 36)" cx="642" cy="954" r="18" />
        <circle id="canvas1-oval211" stroke="none" fill="rgb(41, 171, 226)" cx="694" cy="954" r="18" />
        <circle id="canvas1-oval212" stroke="none" fill="rgb(41, 171, 226)" cx="746" cy="954" r="18" />
        <circle id="canvas1-oval213" stroke="none" fill="rgb(241, 90, 36)" cx="798" cy="954" r="18" />
        <circle id="canvas1-oval214" stroke="none" fill="rgb(241, 90, 36)" cx="850" cy="902" r="18" />
        <circle id="canvas1-oval215" stroke="none" fill="rgb(241, 90, 36)" cx="850" cy="850" r="18" />
        <circle id="canvas1-oval216" stroke="none" fill="rgb(241, 90, 36)" cx="902" cy="850" r="18" />
        <circle id="canvas1-oval217" stroke="none" fill="rgb(241, 90, 36)" cx="902" cy="902" r="18" />
        <circle id="canvas1-oval218" stroke="none" fill="rgb(41, 171, 226)" cx="954" cy="850" r="18" />
        <circle id="canvas1-oval219" stroke="none" fill="rgb(241, 90, 36)" cx="850" cy="954" r="18" />
        <rect id="canvas1-rectangle2" opacity="0.6" style="mix-blend-mode: lighten;" stroke="none" fill="url(#canvas1-gradient2-rectangle2)" x="0" y="0" width="1024" height="1024" />
        <path id="canvas1-bezier3" opacity="0.3" stroke="none" fill="rgb(51, 51, 51)" d="M 296.94,523.76 L 433.98,669.93 407.58,669.75 727.33,340.86 753.46,366.25 433.71,695.14 C 426.49,702.63 414.43,702.54 407.3,694.96 L 270.27,548.79 296.94,523.76 Z M 296.94,523.76" />
        <path id="canvas1-bezier4" opacity="0.3" stroke="none" fill="rgb(51, 51, 51)" d="M 913.97,518 C 913.97,740 734,919.98 512,919.98 290,919.98 110.03,740 110.03,518 110.03,296 290,116.02 512,116.02 734,116.02 913.97,296 913.97,518 L 877.43,518 C 877.43,316.19 713.81,152.57 512,152.57 310.19,152.57 146.57,316.19 146.57,518 146.57,719.81 310.19,883.43 512,883.43 713.81,883.43 877.43,719.81 877.43,518 L 913.97,518 Z M 913.97,518" />
        <path id="canvas1-bezier5" stroke="none" fill="rgb(241, 90, 36)" d="M 296.94,517.76 L 433.98,663.93 407.58,663.75 727.33,334.86 753.46,360.25 433.71,689.14 C 426.49,696.63 414.43,696.54 407.3,688.96 L 270.27,542.79 296.94,517.76 Z M 296.94,517.76" />
        <path id="canvas1-bezier6" stroke="none" fill="rgb(241, 90, 36)" d="M 913.97,512 C 913.97,734 734,913.98 512,913.98 290,913.98 110.03,734 110.03,512 110.03,290 290,110.02 512,110.02 734,110.02 913.97,290 913.97,512 L 877.43,512 C 877.43,310.19 713.81,146.57 512,146.57 310.19,146.57 146.57,310.19 146.57,512 146.57,713.81 310.19,877.43 512,877.43 713.81,877.43 877.43,713.81 877.43,512 L 913.97,512 Z M 913.97,512" />
    </g>
</svg>
